# xmcd CD database file
#
# Track frame offsets:
#	150
#	30458
#	51884
#	67987
#	96419
#	114546
#	125284
#	156514
#	183122
#	205207
#	220233
#
# Disc length: 3151 seconds
#
# Revision: 0
# Processed by: cddbd v1.5.2PL0 Copyright (c) Steve Scherf et al.
# Submitted via: CDex 1.51
#
DISCID=990c4d0b
DTITLE=Antonio Farao - Takes On Passolini
DYEAR=1900
DGENRE=Jazz
TTITLE0=Mamma Roma - Cha Cha Cha
TTITLE1=Mamma Roma - Stornello
TTITLE2=Una Vita violenta - Serenata cha cha cha
TTITLE3=Medea
TTITLE4=Porcile - Julian e Ida
TTITLE5=Porcile - Percorso malinconico
TTITLE6=Teorema
TTITLE7=Stella
TTITLE8=Oedipus
TTITLE9=Una Vita violenta - Irene
TTITLE10=Una Vita violenta - Theme song
EXTD=
EXTT0=
EXTT1=
EXTT2=
EXTT3=
EXTT4=
EXTT5=
EXTT6=
EXTT7=
EXTT8=
EXTT9=
EXTT10=
PLAYORDER=
